<svg aria-hidden="true" style="position: absolute; width: 0; height: 0; overflow: hidden;" version="1.1" xmlns="http://www.w3.org/2000/svg" xmlns:xlink="http://www.w3.org/1999/xlink">
<defs>
<symbol id="icon-ellips" viewBox="0 0 32 32">
<path d="M32 14c-7.5 0-6.75 10.125-16 10.125s-8.5-10.125-16-10.125c0-3.935 7.163-6.125 16-6.125s16 2.19 16 6.125z"></path>
</symbol>
<symbol id="icon-filter" viewBox="0 0 32 32">
<path stroke-linejoin="round" stroke-linecap="round" stroke-miterlimit="4" stroke-width="1.3333" d="M12.892 25.106h-11.727"></path>
<path stroke-linejoin="round" stroke-linecap="round" stroke-miterlimit="4" stroke-width="1.3333" d="M18.123 7.067h11.727"></path>
<path stroke-linejoin="round" stroke-linecap="round" stroke-miterlimit="4" stroke-width="1.3333" d="M9.907 6.966c0-2.411-1.969-4.367-4.398-4.367s-4.398 1.955-4.398 4.367c0 2.411 1.969 4.367 4.398 4.367s4.398-1.955 4.398-4.367z"></path>
<path stroke-linejoin="round" stroke-linecap="round" stroke-miterlimit="4" stroke-width="1.3333" d="M30.889 25.034c0-2.411-1.968-4.367-4.397-4.367-2.43 0-4.4 1.955-4.4 4.367s1.969 4.367 4.4 4.367c2.429 0 4.397-1.955 4.397-4.367z"></path>
</symbol>
</defs>
</svg>
